<?xml version="1.0" encoding="UTF-8" standalone="no"?>
<!-- Created with Inkscape (http://www.inkscape.org/) -->

<svg
   xmlns:dc="http://purl.org/dc/elements/1.1/"
   xmlns:cc="http://creativecommons.org/ns#"
   xmlns:rdf="http://www.w3.org/1999/02/22-rdf-syntax-ns#"
   xmlns:svg="http://www.w3.org/2000/svg"
   xmlns="http://www.w3.org/2000/svg"
   xmlns:sodipodi="http://sodipodi.sourceforge.net/DTD/sodipodi-0.dtd"
   xmlns:inkscape="http://www.inkscape.org/namespaces/inkscape"
   width="107.795mm"
   height="22mm"
   viewBox="0 0 107.795 22"
   version="1.1"
   id="svg1464"
   inkscape:version="0.92.4 (5da689c313, 2019-01-14)"
   sodipodi:docname="esco.svg">
  <defs
     id="defs1458">
    <radialGradient
       gradientUnits="userSpaceOnUse"
       fy="268.02493"
       fx="57.606583"
       gradientTransform="scale(1.3887302,0.72008228)"
       r="77.76889"
       cy="268.02493"
       cx="57.606583"
       id="rgrd_dropShadow">
      <stop
         offset="0"
         style="stop-color:#000000;stop-opacity:0.75"
         id="rgrd_dropShadow_st0" />
      <stop
         offset="1"
         style="stop-color:#000000;stop-opacity:0"
         id="rgrd_dropShadow_st1" />
    </radialGradient>
    <filter
       id="filt_blurDropShadow"
       height="1.4"
       y="-0.2"
       width="1.2"
       x="-0.1">
      <feGaussianBlur
         id="fegb_blurDropShadow"
         stdDeviation="4.14" />
    </filter>
    <linearGradient
       id="lgrd_redVelvet">
      <stop
         id="lgrd_redVelvet_st0"
         style="stop-color:#9b0000;stop-opacity:1"
         offset="0" />
      <stop
         id="lgrd_redVelvet_st1"
         style="stop-color:#690000;stop-opacity:1"
         offset="1" />
    </linearGradient>
    <radialGradient
       gradientUnits="userSpaceOnUse"
       fy="80"
       fx="80"
       r="95"
       cy="80"
       cx="80"
       id="rgrd_blueMarble">
      <stop
         id="rgrd_blueMarble_st0"
         style="stop-color:#1cd7fb;stop-opacity:1"
         offset="0" />
      <stop
         id="rgrd_blueMarble_st1"
         style="stop-color:#1eadeb;stop-opacity:1"
         offset="0.45" />
      <stop
         id="rgrd_blueMarble_st2"
         style="stop-color:#0e8adc;stop-opacity:1"
         offset="0.60" />
      <stop
         id="rgrd_blueMarble_st3"
         style="stop-color:#065297;stop-opacity:1"
         offset="0.77" />
      <stop
         id="rgrd_blueMarble_st4"
         style="stop-color:#044374;stop-opacity:1"
         offset="0.90" />
      <stop
         id="rgrd_blueMarble_st5"
         style="stop-color:#043f74;stop-opacity:0"
         offset="1" />
    </radialGradient>
    <radialGradient
       gradientUnits="userSpaceOnUse"
       fy="131.13831"
       fx="79.174591"
       gradientTransform="scale(1.0141413,0.98605588)"
       r="96.762466"
       cy="131.13831"
       cx="79.174591"
       id="rgrd_deepBlueCoasts">
      <stop
         offset="0"
         style="stop-color:#0f75d2;stop-opacity:0.85"
         id="rgrd_deepBlueCoasts_st0" />
      <stop
         offset="1"
         style="stop-color:#032b51;stop-opacity:1"
         id="rgrd_deepBlueCoasts_st1" />
    </radialGradient>
    <radialGradient
       gradientUnits="userSpaceOnUse"
       fy="130.47983"
       fx="78.888542"
       gradientTransform="scale(1.0136592,0.98652483)"
       r="98.141899"
       cy="130.47983"
       cx="78.888542"
       id="rgrd_coolBlueTerra">
      <stop
         id="rgrd_coolBlueTerra_st0"
         style="stop-color:#f7f7f7;stop-opacity:1"
         offset="0" />
      <stop
         id="rgrd_coolBlueTerra_st1"
         offset="0.65"
         style="stop-color:#9ed4e2;stop-opacity:1" />
      <stop
         id="rgrd_coolBlueTerra_st2"
         style="stop-color:#3aa5ca;stop-opacity:1"
         offset="1" />
    </radialGradient>
    <filter
       id="filt_blurShadow"
       x="-0.17"
       width="1.33"
       y="-0.1"
       height="1.2">
      <feGaussianBlur
         stdDeviation="3.23"
         id="fegb_blurShadow" />
    </filter>
  </defs>
  <sodipodi:namedview
     id="base"
     pagecolor="#ffffff"
     bordercolor="#666666"
     borderopacity="1.0"
     inkscape:pageopacity="0.0"
     inkscape:pageshadow="2"
     inkscape:zoom="0.35"
     inkscape:cx="-277.14286"
     inkscape:cy="560"
     inkscape:document-units="mm"
     inkscape:current-layer="layer1"
     showgrid="false"
     inkscape:window-width="1920"
     inkscape:window-height="1001"
     inkscape:window-x="-9"
     inkscape:window-y="-9"
     inkscape:window-maximized="1" />
  <metadata
     id="metadata1461">
    <rdf:RDF>
      <cc:Work
         rdf:about="">
        <dc:format>image/svg+xml</dc:format>
        <dc:type
           rdf:resource="http://purl.org/dc/dcmitype/StillImage" />
        <dc:title></dc:title>
      </cc:Work>
    </rdf:RDF>
  </metadata>
  <g
     inkscape:label="Layer 1"
     inkscape:groupmode="layer"
     id="layer1"
     transform="translate(0,-275)">
    <g
       transform="matrix(0.05386574,0,0,0.05386574,-124.96757,692.0781)"
       id="g1437">
      <g
         inkscape:export-filename="Z:\DATA DUMP\Workspace\Clients Data\Employee Supply &amp; Outsource Ltd\Website\Serenity\ESCO\assets\img\logo.png"
         id="g1555"
         transform="matrix(-3.9238461,0,0,3.9238461,1114.6278,-7925.4133)"
         style="fill:#4d4d4d;fill-opacity:0.94117647"
         inkscape:export-xdpi="21.969999"
         inkscape:export-ydpi="21.969999">
        <path
           style="fill:#4d4d4d;fill-opacity:0.94117647;stroke-width:0.02822222"
           d="m -327.64299,144.22421 c -0.64939,-0.0354 -1.09641,-0.0965 -1.18479,-0.16187 -0.1648,-0.122 -0.25423,-0.33227 -0.25423,-0.59778 0,-0.21005 0.0409,-0.34245 0.15014,-0.48612 0.17929,-0.23579 0.47811,-0.35757 1.02275,-0.41678 0.29232,-0.0318 0.43546,-0.0738 0.43546,-0.12777 0,-0.0542 0.33854,-0.20621 0.90311,-0.4054 1.26724,-0.44709 1.62672,-0.63889 2.21721,-1.18299 l 0.21051,-0.19397 -0.15423,-0.80895 c -0.1807,-0.94779 -0.31419,-1.77571 -0.45351,-2.81269 -0.29721,-2.2123 -0.40898,-2.77619 -0.75236,-3.79574 -0.44633,-1.32522 -1.06895,-2.47003 -2.5634,-4.71325 -1.18157,-1.7736 -1.58749,-2.4674 -1.79052,-3.0604 -0.0714,-0.20861 -0.13358,-0.38301 -0.13813,-0.38755 -0.0144,-0.0144 -7.93246,0.71959 -8.27788,0.76736 l -0.11708,0.0162 -0.57892,1.72731 c -0.60574,1.80735 -0.89129,2.60434 -1.24245,3.46775 -0.90645,2.22872 -1.86903,3.92042 -3.15353,5.5422 -0.92133,1.16323 -1.46595,2.39567 -1.83274,4.14736 -0.24102,1.15104 -0.67905,2.42628 -1.03916,3.02533 l -0.13238,0.22022 -0.15488,-0.003 c -0.22172,-0.004 -0.78706,-0.15189 -1.55188,-0.40568 -1.05609,-0.35045 -1.47449,-0.55163 -1.5852,-0.76224 -0.0405,-0.077 -0.0518,-0.16258 -0.0521,-0.39511 -2.2e-4,-0.16323 -0.008,-0.3234 -0.0163,-0.35594 -0.0157,-0.0586 -0.0274,-0.0593 -1.29078,-0.0768 -1.32724,-0.0184 -1.62237,-0.037 -2.1639,-0.1366 -0.91599,-0.16846 -1.72761,-0.49225 -3.59833,-1.43555 -2.18386,-1.1012 -2.62956,-1.37758 -2.77279,-1.71943 -0.0608,-0.14516 -0.0388,-0.51 0.037,-0.61142 0.10806,-0.14473 0.24766,-0.19274 0.59336,-0.20403 0.36476,-0.0119 0.67663,0.0289 1.60103,0.20932 0.35414,0.0691 0.83674,0.15128 1.07244,0.18256 0.55949,0.0742 1.49855,0.10151 1.99489,0.0579 0.38859,-0.0341 1.28895,-0.15899 1.40436,-0.19476 0.0558,-0.0173 -0.0307,-0.0981 -0.69144,-0.64584 -0.41539,-0.34433 -0.81875,-0.67392 -0.89636,-0.73243 -0.18664,-0.1407 -0.20971,-0.17378 -0.21077,-0.30215 -10e-4,-0.1351 0.0704,-0.29052 0.16092,-0.34985 0.0568,-0.0372 0.0846,-0.0393 0.16007,-0.012 0.1264,0.0457 0.12803,0.0448 0.11072,-0.0618 -0.0195,-0.11985 0.0491,-0.27843 0.26137,-0.60456 0.50041,-0.76885 1.54987,-2.01622 3.17506,-3.77381 1.86556,-2.01754 2.9109,-3.36966 3.50193,-4.52966 0.3299,-0.64751 0.57868,-1.3544 1.54443,-4.38856 0.83017,-2.60818 1.12667,-3.36944 2.20394,-5.65856 1.09869,-2.33464 1.46839,-3.21492 1.66447,-3.96322 0.12793,-0.48821 0.14661,-0.6776 0.14412,-1.46123 -0.003,-0.80116 0.0232,-1.07419 0.11939,-1.26421 0.0836,-0.16521 0.2729,-0.29281 0.51698,-0.34849 0.22281,-0.0508 0.35397,-0.16187 0.48785,-0.41305 0.12203,-0.22897 0.28393,-0.73044 0.30296,-0.93842 0.0141,-0.15406 0.008,-0.18691 -0.046,-0.25522 -0.0974,-0.12282 -0.24975,-0.18349 -0.65489,-0.26088 -0.78123,-0.14922 -1.26878,-0.28992 -1.94198,-0.56041 l -0.381,-0.15308 -0.008,-0.27795 c -0.005,-0.15287 0.024,-1.7956 0.0634,-3.6505 0.0394,-1.85491 0.0966,-4.623506 0.12695,-6.152445 0.0304,-1.528939 0.0625,-3.029218 0.0715,-3.333953 0.0127,-0.435334 0.008,-0.557248 -0.0199,-0.568926 -1.33731,-0.550986 -2.10096,-0.824309 -3.60618,-1.29071 -1.23157,-0.381609 -1.57041,-0.517753 -1.93855,-0.778894 -0.28197,-0.200019 -0.45557,-0.452904 -0.56027,-0.816166 -0.0718,-0.249053 -0.18174,-0.44999 -0.4012,-0.733154 -0.28007,-0.361375 -0.64036,-0.698842 -0.80658,-0.755478 -0.29882,-0.101818 -1.53971,-0.914725 -1.76008,-1.153025 -0.13599,-0.147052 -0.18462,-0.322518 -0.20595,-0.743088 -0.0276,-0.542981 -0.0724,-0.630262 -0.41096,-0.79958 -0.0941,-0.04704 -0.21717,-0.136614 -0.27357,-0.199043 -0.15279,-0.169117 -0.1904,-0.332873 -0.1904,-0.828951 0,-0.312475 -0.0105,-0.439935 -0.0412,-0.499207 -0.069,-0.133503 -0.32078,-0.336379 -0.67762,-0.546081 -0.64509,-0.379103 -0.97455,-0.62942 -0.97455,-0.740449 0,-0.07105 0.0845,-0.127822 0.16432,-0.110344 0.13138,0.02878 0.77461,0.35603 1.87983,0.956372 0.58876,0.31981 1.08546,0.575723 1.10378,0.568695 0.0526,-0.02019 0.60502,-0.690563 0.72818,-0.883689 0.092,-0.144244 0.13649,-0.185491 0.25547,-0.236779 0.24154,-0.104114 0.75639,-0.198118 1.11775,-0.204082 0.30426,-0.005 0.33398,-4.99e-4 0.47522,0.07234 0.0829,0.04274 0.22257,0.133574 0.31045,0.201863 0.0879,0.06829 0.20422,0.147971 0.25855,0.177071 0.0543,0.0291 0.19403,0.116401 0.31045,0.194003 0.11641,0.0776 0.28151,0.170799 0.36689,0.207104 0.24301,0.103342 0.47146,0.282107 0.75929,0.594157 0.63466,0.688076 2.06177,1.680675 3.3058,2.299288 0.47085,0.234135 1.28819,0.533214 1.55842,0.570253 l 0.12953,0.01775 0.0446,-0.150342 c 0.0532,-0.179181 0.27449,-1.145943 0.56562,-2.471125 0.25326,-1.152849 0.50423,-2.164581 0.679,-2.737353 0.28603,-0.937372 0.33909,-1.24277 0.25444,-1.464429 -0.027,-0.07063 -0.11791,-0.212439 -0.20209,-0.315131 -0.16687,-0.203585 -0.19518,-0.272694 -0.17149,-0.418695 0.0388,-0.239297 0.52347,-1.07632 1.33913,-2.312828 0.90014,-1.364594 1.37214,-2.003596 1.50198,-2.03344 0.0391,-0.009 0.0921,-0.04504 0.11779,-0.08009 0.0455,-0.06212 0.0406,-0.07146 -0.1905,-0.368628 -0.13042,-0.167692 -0.2368,-0.312998 -0.23641,-0.322903 4e-4,-0.0099 0.22455,-0.284708 0.49812,-0.610674 0.70222,-0.836718 0.79437,-0.989908 0.70243,-1.167704 -0.0522,-0.100968 -0.19705,-0.217279 -0.30371,-0.243893 -0.10199,-0.02545 -0.21666,0.01418 -0.70033,0.242047 -1.12791,0.531381 -1.96203,0.618262 -2.38249,0.248158 -0.17115,-0.150652 -0.23535,-0.304467 -0.26686,-0.639352 -0.0315,-0.335176 -0.0965,-0.482693 -0.25726,-0.584174 -0.12747,-0.08047 -0.15583,-0.155928 -0.12809,-0.340883 0.0269,-0.179312 -0.023,-0.243206 -0.26108,-0.334171 -0.21811,-0.08334 -0.34173,-0.193426 -0.36946,-0.329009 -0.0292,-0.1428 -0.13141,-0.198927 -0.41719,-0.229097 -0.42469,-0.04484 -0.52864,-0.07325 -0.6509,-0.177896 -0.22157,-0.189656 -0.27153,-0.414914 -0.31352,-1.413652 -0.0277,-0.658842 -0.0595,-0.772242 -0.2256,-0.805197 -0.18938,-0.03757 -0.40523,-0.329279 -0.69326,-0.936888 -0.32669,-0.689166 -0.53229,-0.925002 -0.98637,-1.131429 -0.30128,-0.136961 -0.60075,-0.340854 -0.68245,-0.464643 -0.1203,-0.182271 -0.16236,-0.445812 -0.14469,-0.906772 0.0283,-0.739746 0.13518,-1.035219 0.62227,-1.721057 0.42174,-0.593825 1.15776,-1.443678 1.49721,-1.728773 0.1543,-0.129594 0.21351,-0.162614 0.29159,-0.162614 0.0943,0 0.0973,-0.0033 0.0807,-0.08647 -0.0265,-0.132269 0.0709,-0.291333 0.34566,-0.564559 0.2913,-0.289701 0.62085,-0.54333 1.01099,-0.778051 0.65294,-0.392845 1.16086,-0.525247 2.30837,-0.601739 0.47836,-0.03189 0.67779,-0.07978 0.77777,-0.186799 0.10596,-0.113423 0.20615,-0.153051 0.38693,-0.153051 0.82494,0 2.32032,1.218584 3.28472,2.676706 0.319,0.48232 0.48444,0.872791 0.76118,1.796516 0.2395,0.799447 0.61276,2.173767 0.81779,3.011078 0.24469,0.99925 0.225,0.938442 0.3075,0.949431 0.11504,0.01532 0.24101,0.160975 0.57767,0.667935 0.34929,0.525961 0.55892,0.753211 0.73972,0.801897 0.24611,0.06627 0.53482,0.309563 1.74472,1.470266 0.49671,0.476512 1.16322,1.106362 1.48113,1.399667 0.80325,0.741081 1.18274,1.105583 1.52586,1.465603 1.79332,1.881643 2.46467,3.660437 3.11519,8.254011 0.37749,2.665599 0.54116,4.996004 0.51677,7.358122 -0.0152,1.467296 -0.0442,1.870544 -0.20393,2.830099 -0.16873,1.013706 -0.22645,1.501454 -0.26813,2.265728 -0.0331,0.607105 -0.12609,1.333644 -0.27077,2.115716 -0.24899,1.345892 -0.27549,1.805971 -0.18493,3.210334 0.0814,1.261415 0.0853,1.332895 0.13121,2.366945 0.0223,0.50242 0.0527,0.92816 0.0676,0.94608 0.0421,0.0507 0.10931,0.60951 0.17176,1.42831 0.0789,1.03438 0.1353,1.6493 0.18711,2.03997 0.0615,0.46368 0.0432,0.48825 -0.42251,0.56861 -0.12657,0.0218 -0.54129,0.073 -0.92158,0.11362 -0.3803,0.0407 -0.71819,0.0796 -0.75088,0.0865 -0.0584,0.0123 -0.0588,0.0166 -0.0214,0.24588 0.0661,0.40551 0.12585,0.70809 0.17079,0.86554 l 0.0435,0.15245 0.44125,-0.0184 c 0.51571,-0.0215 1.44592,-0.0929 2.98125,-0.22883 1.60058,-0.14172 1.90175,-0.16306 2.35656,-0.16701 0.65875,-0.006 0.78438,0.0547 0.87309,0.41979 0.39299,1.61738 1.39588,12.5005 1.35197,14.67123 l -0.01,0.47546 -0.0847,0.0683 c -0.11123,0.0897 -0.40641,0.18019 -0.58859,0.18039 -0.17656,2.9e-4 -0.4709,0.0461 -0.50333,0.0786 -0.0293,0.0293 0.10098,0.49205 0.54189,1.92504 0.95425,3.10142 3.48443,11.66943 3.65454,12.37544 0.26767,1.11098 0.69138,3.65584 0.69138,4.15254 0,0.2157 0.0388,0.19077 -0.54276,0.349 -1.1779,0.32052 -2.62316,0.6525 -2.86736,0.65864 -0.16097,0.004 -0.18504,-0.003 -0.24306,-0.0702 -0.0354,-0.0411 -0.093,-0.18077 -0.12789,-0.31044 -0.0349,-0.12968 -0.0876,-0.28314 -0.11705,-0.34103 -0.16375,-0.32184 -0.54914,-0.24736 -1.7731,0.34269 -0.7929,0.38224 -1.10814,0.51961 -1.52324,0.66377 -0.54676,0.18989 -1.06197,0.29901 -1.68143,0.35615 -0.43034,0.0397 -3.68447,0.0581 -4.30389,0.0244 z"
           id="path1549"
           inkscape:connector-curvature="0" />
        <path
           style="fill:#4d4d4d;fill-opacity:0.94117647;stroke-width:0.02822222"
           d="m -327.36077,144.22426 c -0.67372,-0.0282 -1.16136,-0.074 -1.34811,-0.12686 -0.11785,-0.0333 -0.16579,-0.0657 -0.23126,-0.15606 -0.098,-0.13522 -0.15495,-0.37899 -0.13264,-0.56734 0.0562,-0.47426 0.41412,-0.72925 1.11934,-0.79739 0.29428,-0.0284 0.44948,-0.0714 0.48282,-0.13373 0.0402,-0.0751 0.32816,-0.20273 0.9424,-0.41778 1.16703,-0.40859 1.62877,-0.65579 2.17129,-1.16242 l 0.22396,-0.20915 -0.16016,-0.8452 c -0.19303,-1.01862 -0.32339,-1.83077 -0.4573,-2.84899 -0.27397,-2.08309 -0.44484,-2.91016 -0.81045,-3.92289 -0.46832,-1.29725 -1.03465,-2.31996 -2.53174,-4.572 -1.16377,-1.75062 -1.54909,-2.41066 -1.75396,-3.00442 -0.11647,-0.33757 -0.13972,-0.38313 -0.19888,-0.38984 -0.0746,-0.008 -2.14738,0.18001 -5.87257,0.53399 l -2.47537,0.23521 -0.57879,1.72577 c -0.75088,2.23892 -1.12714,3.25298 -1.61014,4.33944 -0.8638,1.94307 -1.57204,3.11152 -3.0211,4.98418 -0.71929,0.92957 -1.29052,2.30565 -1.61042,3.87949 -0.14913,0.73371 -0.38635,1.52264 -0.66648,2.21651 -0.18111,0.4486 -0.39781,0.87473 -0.48783,0.9593 l -0.0699,0.0657 -0.24739,-0.0485 c -0.88116,-0.17279 -2.55616,-0.76298 -2.82955,-0.99699 -0.17287,-0.14797 -0.19773,-0.22868 -0.19773,-0.64181 v -0.35369 l -1.19239,-2.8e-4 c -1.49993,-3.7e-4 -1.97756,-0.0383 -2.67406,-0.21239 -0.77786,-0.19443 -1.52289,-0.5091 -3.175,-1.34099 -2.12607,-1.07056 -2.60283,-1.35802 -2.77166,-1.67116 -0.075,-0.13909 -0.0703,-0.52612 0.008,-0.63065 0.0933,-0.12512 0.18442,-0.17795 0.36514,-0.21169 0.31983,-0.0597 0.74881,-0.01 2.04612,0.23782 0.28716,0.0548 0.68086,0.12124 0.87488,0.14759 0.45627,0.062 1.66496,0.0875 2.09552,0.0442 0.42448,-0.0427 1.2994,-0.17509 1.32858,-0.2011 0.0217,-0.0194 -0.96294,-0.85807 -1.55466,-1.32425 -0.15665,-0.12341 -0.26813,-0.23292 -0.27828,-0.27334 -0.0376,-0.14999 0.0548,-0.36328 0.18839,-0.43479 0.0386,-0.0206 0.0818,-0.0169 0.15413,0.0133 l 0.10051,0.042 -0.0178,-0.0949 c -0.0679,-0.36173 1.04168,-1.78898 3.30344,-4.24935 1.8008,-1.95894 2.67715,-3.04332 3.33134,-4.12219 0.51855,-0.85516 0.72914,-1.41563 1.81795,-4.83836 0.85147,-2.67662 1.15467,-3.46034 2.18916,-5.65856 1.27501,-2.7093 1.63323,-3.59232 1.80894,-4.45911 0.039,-0.19244 0.0494,-0.41013 0.0528,-1.10067 0.005,-1.05825 0.0323,-1.2124 0.24736,-1.40121 0.10378,-0.0911 0.17574,-0.12361 0.4303,-0.19431 0.21177,-0.0588 0.34041,-0.18627 0.47629,-0.4719 0.22423,-0.47133 0.3289,-0.9877 0.23061,-1.1377 -0.0751,-0.11459 -0.30275,-0.19992 -0.74923,-0.28082 -0.70703,-0.12809 -1.05624,-0.22875 -1.78506,-0.51451 l -0.47272,-0.18535 9e-5,-0.10137 c 5e-5,-0.0558 0.0377,-1.87303 0.0836,-4.03838 0.18289,-8.617368 0.20462,-9.79825 0.18075,-9.821644 -0.0135,-0.01326 -0.35479,-0.156605 -0.75837,-0.31855 -0.81274,-0.32613 -1.68587,-0.627885 -2.87867,-0.994861 -0.94927,-0.292055 -1.23847,-0.397389 -1.60435,-0.58433 -0.30494,-0.155812 -0.55376,-0.364222 -0.69196,-0.57958 -0.0472,-0.0735 -0.12388,-0.250314 -0.17048,-0.392926 -0.10745,-0.328795 -0.15706,-0.424804 -0.36313,-0.702725 -0.32364,-0.436494 -0.65953,-0.751335 -0.8813,-0.826068 -0.27891,-0.09399 -1.47929,-0.890662 -1.6981,-1.127003 -0.1853,-0.200149 -0.21301,-0.285049 -0.23658,-0.724868 -0.01,-0.186267 -0.0301,-0.386459 -0.0448,-0.444871 -0.0358,-0.14264 -0.17165,-0.291124 -0.3463,-0.378543 -0.23327,-0.116752 -0.329,-0.204261 -0.40805,-0.373012 -0.0701,-0.149696 -0.0743,-0.183817 -0.0781,-0.631915 -0.004,-0.461696 -0.006,-0.476364 -0.0777,-0.580084 -0.0927,-0.133712 -0.37205,-0.344586 -0.73695,-0.556219 -0.34775,-0.201693 -0.64718,-0.403055 -0.77092,-0.518427 -0.0701,-0.06536 -0.0913,-0.106716 -0.0847,-0.164763 0.0223,-0.193896 0.22466,-0.106855 2.01037,0.864798 0.60409,0.328701 1.10778,0.587702 1.1193,0.575559 0.14534,-0.15312 0.61543,-0.732837 0.70878,-0.874061 0.13926,-0.210669 0.22017,-0.261436 0.54736,-0.343429 0.49725,-0.124612 0.98247,-0.155217 1.21841,-0.07685 0.0737,0.02447 0.22803,0.115269 0.34302,0.201776 0.40471,0.30446 0.69003,0.479409 1.06079,0.650449 0.20375,0.094 0.26577,0.144342 0.63581,0.516097 0.22552,0.226567 0.53032,0.508017 0.67733,0.625444 1.05518,0.842817 2.54429,1.728594 3.42819,2.039211 0.36497,0.128253 0.70684,0.232915 0.83708,0.256263 0.10298,0.01846 0.10343,0.0181 0.14734,-0.11634 0.0582,-0.178046 0.19231,-0.756848 0.46629,-2.011638 0.35807,-1.63995 0.57805,-2.525442 0.89045,-3.584222 0.25428,-0.861808 0.24834,-1.091063 -0.0368,-1.42035 -0.1392,-0.160768 -0.20195,-0.273916 -0.20148,-0.363304 5.2e-4,-0.09822 0.16304,-0.446032 0.39956,-0.855123 0.69112,-1.195356 2.29679,-3.541897 2.42362,-3.541897 0.0138,0 0.017,0.02222 0.007,0.04939 -0.01,0.02716 0.0345,-0.0011 0.0989,-0.06281 0.10013,-0.09599 0.11206,-0.119268 0.0826,-0.161109 -0.019,-0.0269 -0.13283,-0.175461 -0.25301,-0.330137 l -0.21851,-0.281229 0.48138,-0.57365 c 0.5788,-0.689749 0.73036,-0.904185 0.75175,-1.06366 0.0149,-0.111317 0.008,-0.124589 -0.1251,-0.258182 -0.21444,-0.214438 -0.28416,-0.202966 -1.08023,0.177739 -0.56072,0.268155 -1.03257,0.39409 -1.48166,0.395446 -0.43323,0.0013 -0.72217,-0.126314 -0.87451,-0.386265 -0.0557,-0.09499 -0.0806,-0.189984 -0.10065,-0.384273 -0.0147,-0.14195 -0.0347,-0.292078 -0.0445,-0.333618 -0.022,-0.09362 -0.12634,-0.287195 -0.15478,-0.287195 -0.0116,0 -0.0675,-0.04379 -0.12421,-0.09732 -0.10304,-0.09718 -0.10316,-0.09758 -0.0842,-0.275167 0.0174,-0.162833 0.0134,-0.183034 -0.047,-0.239304 -0.0363,-0.0338 -0.13837,-0.08846 -0.22687,-0.121464 -0.20317,-0.07576 -0.31928,-0.183527 -0.35977,-0.333918 -0.0431,-0.160082 -0.13096,-0.200279 -0.50413,-0.230659 -0.42907,-0.03493 -0.57689,-0.103784 -0.68757,-0.320266 -0.11169,-0.218449 -0.13752,-0.385143 -0.16474,-1.063013 -0.034,-0.847331 -0.0602,-0.95435 -0.24455,-1.000626 -0.0393,-0.0099 -0.1008,-0.03717 -0.1367,-0.06069 -0.11064,-0.0725 -0.34352,-0.439426 -0.55013,-0.866819 -0.35711,-0.738699 -0.49547,-0.892615 -1.05352,-1.171954 -0.4486,-0.224556 -0.64038,-0.393885 -0.70813,-0.62524 -0.14179,-0.484194 -0.0543,-1.338862 0.18583,-1.814665 0.23684,-0.469324 0.93698,-1.376935 1.54696,-2.005357 0.36839,-0.379527 0.48742,-0.475117 0.61816,-0.496419 0.0961,-0.01566 0.10196,-0.0225 0.0933,-0.108714 -0.0132,-0.130724 0.0912,-0.293223 0.35297,-0.549697 0.25848,-0.253236 0.46343,-0.416596 0.81341,-0.648372 0.6906,-0.457346 1.30585,-0.645026 2.29086,-0.698818 0.63904,-0.0349 0.84805,-0.08237 0.99831,-0.226738 0.13032,-0.125219 0.24111,-0.155656 0.46906,-0.128865 0.52105,0.06124 1.26361,0.537125 2.02936,1.300565 0.453,0.451629 0.79584,0.862688 1.1159,1.337924 0.41067,0.609773 0.57061,1.034619 1.08211,2.87441 0.27821,1.000656 0.59239,2.208153 0.66411,2.552386 0.0734,0.352181 0.0779,0.362138 0.16298,0.362138 0.0919,0 0.24228,0.160243 0.45039,0.479778 0.35033,0.537905 0.41857,0.631746 0.57497,0.790591 0.1089,0.110607 0.19929,0.175555 0.27129,0.194944 0.24122,0.06495 0.63597,0.384374 1.4423,1.167072 0.71994,0.698844 1.30964,1.256104 2.22081,2.098664 0.40358,0.373188 0.87069,0.82159 1.03804,0.99645 1.67252,1.747634 2.36877,3.358187 2.95322,6.831389 0.35033,2.08184 0.57605,4.118866 0.71305,6.434666 0.0207,0.349756 0.0359,1.222435 0.036,2.060222 0,1.671267 -0.0291,2.114172 -0.21225,3.222687 -0.14852,0.898627 -0.21901,1.486205 -0.25299,2.108621 -0.0442,0.809139 -0.11408,1.35971 -0.29601,2.331025 -0.16456,0.878603 -0.18698,1.072109 -0.20274,1.749778 -0.0106,0.454299 -10e-4,0.843923 0.0306,1.298222 0.0547,0.776202 0.12068,2.020642 0.14748,2.779892 0.0126,0.35642 0.0317,0.57022 0.0544,0.60678 0.0564,0.0911 0.10505,0.51982 0.19678,1.73566 0.0563,0.74635 0.14817,1.69449 0.18254,1.8843 0.0346,0.19127 0.002,0.27944 -0.12471,0.33219 -0.13059,0.0546 -0.48335,0.10731 -1.32829,0.19858 -0.38806,0.0419 -0.7097,0.0797 -0.71476,0.0839 -0.0158,0.0132 0.13403,0.86408 0.18614,1.05702 l 0.0495,0.18345 0.25364,0.009 c 0.37932,0.013 1.17507,-0.0465 4.28089,-0.3198 0.26857,-0.0236 0.74867,-0.0509 1.06687,-0.0605 0.83066,-0.0252 0.96515,0.0223 1.05531,0.37282 0.38027,1.47832 1.43805,12.94582 1.36652,14.81461 -0.0112,0.2928 -0.019,0.33166 -0.0788,0.39534 -0.10461,0.11136 -0.33718,0.18221 -0.69336,0.21124 -0.32547,0.0265 -0.43613,0.0581 -0.43613,0.12433 0,0.0411 0.25695,0.9138 0.50799,1.7253 0.54534,1.76287 1.77087,5.87901 3.07543,10.32933 0.32306,1.10208 0.63329,2.21333 0.68939,2.46944 0.26546,1.21176 0.63786,3.51257 0.63786,3.94091 v 0.11849 l -0.17639,0.0577 c -0.23689,0.0776 -1.00251,0.27671 -1.85093,0.48145 -1.24849,0.30128 -1.50335,0.3374 -1.61224,0.22852 -0.0304,-0.0304 -0.0758,-0.12886 -0.10087,-0.21873 -0.0991,-0.35555 -0.13854,-0.44919 -0.22645,-0.53733 -0.0819,-0.0821 -0.10842,-0.0917 -0.25251,-0.0917 -0.30364,0 -0.69466,0.14236 -1.50657,0.5485 -1.19998,0.60027 -2.0693,0.88571 -2.96649,0.97404 -0.82041,0.0808 -2.93434,0.10871 -4.20511,0.0556 z m 6.30061,-4.53195 c -0.0194,-0.008 -0.0512,-0.008 -0.0706,0 -0.0194,0.008 -0.004,0.0142 0.0353,0.0142 0.0388,0 0.0547,-0.006 0.0353,-0.0142 z m -3.59326,-45.498356 c 10e-4,-0.02032 -0.0107,-0.02909 -0.0262,-0.0195 -0.0155,0.0096 -0.0273,0.05162 -0.0262,0.09339 0.002,0.06781 0.005,0.0699 0.0262,0.0195 0.0133,-0.03104 0.0251,-0.07307 0.0262,-0.09339 z"
           id="path1551"
           inkscape:connector-curvature="0" />
        <path
           style="fill:#4d4d4d;fill-opacity:0.94117647;stroke-width:0.02822222"
           d="m -326.73988,144.23541 c -0.88564,-0.018 -1.78716,-0.0872 -1.99531,-0.15305 -0.11508,-0.0364 -0.25085,-0.1904 -0.289,-0.32775 -0.0394,-0.1417 -0.0379,-0.44036 0.003,-0.57627 0.0958,-0.31968 0.44789,-0.51637 1.0538,-0.58864 0.34573,-0.0412 0.49048,-0.082 0.52588,-0.14817 0.0401,-0.0749 0.33906,-0.20869 0.89934,-0.40256 0.75199,-0.26019 1.27983,-0.49523 1.6652,-0.74151 0.23998,-0.15337 0.7641,-0.63117 0.74917,-0.68297 -0.0221,-0.0767 -0.26748,-1.38725 -0.33903,-1.81087 -0.0928,-0.54908 -0.24557,-1.60207 -0.35327,-2.43439 -0.21433,-1.65625 -0.43317,-2.58684 -0.8667,-3.68556 -0.45814,-1.16111 -1.02567,-2.16353 -2.34877,-4.14866 -1.24696,-1.87089 -1.6062,-2.48837 -1.82255,-3.13267 l -0.11845,-0.35278 -0.11019,0.007 c -0.45541,0.0306 -7.87839,0.72379 -8.16398,0.76235 l -0.15157,0.0205 -0.61327,1.82034 c -0.3373,1.00118 -0.68351,2.01083 -0.76936,2.24366 -0.97813,2.65294 -2.11133,4.79142 -3.42475,6.46289 -0.66722,0.84912 -0.83904,1.1138 -1.16922,1.80113 -0.35893,0.7472 -0.63516,1.58917 -0.83034,2.53098 -0.2237,1.07942 -0.55474,2.09321 -0.92616,2.83634 -0.20761,0.41539 -0.22652,0.43744 -0.37512,0.43744 -0.3911,0 -2.43652,-0.66376 -2.88934,-0.93762 -0.26589,-0.16081 -0.31097,-0.27057 -0.31207,-0.7597 l -6.7e-4,-0.30031 -1.34761,-0.0139 c -0.76344,-0.008 -1.46384,-0.0282 -1.61573,-0.0469 -0.72733,-0.0896 -1.48347,-0.3064 -2.32833,-0.66746 -0.49226,-0.21038 -2.38588,-1.14758 -3.175,-1.5714 -1.18282,-0.63526 -1.38808,-0.81904 -1.39419,-1.24832 -0.008,-0.59154 0.43685,-0.66837 2.05144,-0.35394 0.68733,0.13385 1.15082,0.20887 1.60053,0.25905 0.40426,0.0451 1.53249,0.0456 1.89089,7.9e-4 0.57798,-0.0722 1.27092,-0.1853 1.26359,-0.20617 -0.01,-0.0285 -1.38866,-1.17484 -1.63678,-1.361 -0.11675,-0.0876 -0.20089,-0.1743 -0.2187,-0.2254 -0.0356,-0.1022 0.002,-0.26072 0.0881,-0.37002 0.0623,-0.0792 0.12346,-0.0848 0.30396,-0.0277 0.0598,0.0189 0.0653,0.0149 0.0447,-0.0323 -0.0607,-0.13892 0.0145,-0.32672 0.30423,-0.75948 0.52552,-0.78496 1.49071,-1.92702 3.12452,-3.69711 1.89464,-2.05268 2.93614,-3.40617 3.52577,-4.58192 0.29068,-0.57964 0.60361,-1.4669 1.3701,-3.88475 0.96576,-3.0464 1.21395,-3.6923 2.33906,-6.08733 1.08488,-2.30937 1.44518,-3.15925 1.65249,-3.89791 0.1406,-0.501 0.1721,-0.79998 0.1721,-1.6337 0,-0.41833 0.0135,-0.81931 0.0308,-0.9127 0.0704,-0.38058 0.22509,-0.51987 0.68888,-0.62009 0.11838,-0.0256 0.32167,-0.24731 0.427,-0.46574 0.14496,-0.3006 0.27142,-0.72623 0.27519,-0.92619 0.003,-0.17146 -7.7e-4,-0.18234 -0.1006,-0.27383 -0.12385,-0.11351 -0.25062,-0.15297 -0.85559,-0.26635 -0.53979,-0.10117 -0.99803,-0.23651 -1.63219,-0.48207 l -0.47026,-0.18209 0.0151,-0.45155 c 0.008,-0.24836 0.0402,-1.68346 0.0709,-3.18911 0.0307,-1.50566 0.0874,-4.24886 0.12589,-6.096004 0.0385,-1.847144 0.0701,-3.556121 0.0701,-3.797726 l 3e-5,-0.439285 -0.78317,-0.314031 c -0.75039,-0.300894 -2.00013,-0.729206 -3.1115,-1.066379 -1.57256,-0.477094 -2.00067,-0.76699 -2.22996,-1.510002 -0.11023,-0.357203 -0.31685,-0.673046 -0.70904,-1.083821 -0.24318,-0.254705 -0.31618,-0.313055 -0.50025,-0.399852 -0.46652,-0.219984 -1.45085,-0.863572 -1.70174,-1.112647 -0.18993,-0.188561 -0.24915,-0.34825 -0.25002,-0.674212 -0.001,-0.549994 -0.0828,-0.732784 -0.40327,-0.906139 -0.417,-0.225583 -0.47903,-0.359889 -0.48276,-1.045321 -0.002,-0.437638 -0.003,-0.440116 -0.0824,-0.544485 -0.1145,-0.150121 -0.31761,-0.302687 -0.70781,-0.531668 -0.65786,-0.386055 -0.90405,-0.581413 -0.88675,-0.703663 0.0234,-0.165415 0.28735,-0.04906 2.01095,0.886504 l 1.09842,0.596219 0.12457,-0.139634 c 0.21666,-0.242847 0.60209,-0.728178 0.66553,-0.838041 0.0955,-0.165455 0.34723,-0.260792 0.91402,-0.346226 0.58033,-0.08747 0.80218,-0.04495 1.15082,0.220595 0.36628,0.27898 0.61929,0.437329 0.95693,0.598912 0.33589,0.160746 0.33624,0.161014 0.77611,0.602706 0.49885,0.500912 0.88798,0.812741 1.63951,1.313802 1.20666,0.804504 2.0604,1.22953 3.01148,1.499226 0.1429,0.04052 0.2821,0.06938 0.30934,0.06414 0.0793,-0.01527 0.17112,-0.373663 0.57354,-2.238747 0.24806,-1.149637 0.60346,-2.597506 0.77589,-3.160889 0.21115,-0.689891 0.27588,-0.969085 0.27809,-1.199444 0.002,-0.24515 -0.0178,-0.292506 -0.24638,-0.578556 -0.22101,-0.276582 -0.21928,-0.347877 0.0197,-0.811798 0.40645,-0.788988 1.84366,-2.980099 2.44322,-3.724818 0.17291,-0.214784 0.19847,-0.213331 0.12228,0.007 -0.008,0.02328 0.0264,-0.0085 0.0765,-0.07056 0.0501,-0.06209 0.12324,-0.138758 0.16249,-0.170376 l 0.0714,-0.05749 -0.25869,-0.333691 c -0.14228,-0.183531 -0.25299,-0.348161 -0.24602,-0.365847 0.007,-0.01769 0.22525,-0.286155 0.48505,-0.5966 0.25981,-0.310444 0.52341,-0.639388 0.58577,-0.730986 0.19375,-0.284597 0.17027,-0.484378 -0.0747,-0.635802 -0.16875,-0.104293 -0.28455,-0.08138 -0.78915,0.156143 -0.79184,0.372734 -1.30686,0.511189 -1.80333,0.4848 -0.3094,-0.01644 -0.4997,-0.08735 -0.65089,-0.24251 -0.13859,-0.142226 -0.18975,-0.280187 -0.21915,-0.590996 -0.0315,-0.332556 -0.0973,-0.487956 -0.24689,-0.582358 -0.13484,-0.08512 -0.18772,-0.210984 -0.14753,-0.351121 0.0284,-0.09901 0.005,-0.197199 -0.0595,-0.250825 -0.0212,-0.0176 -0.11284,-0.05979 -0.20363,-0.09376 -0.20259,-0.0758 -0.31593,-0.175976 -0.36292,-0.320774 -0.0568,-0.175109 -0.13632,-0.214786 -0.48985,-0.244525 -0.37369,-0.03143 -0.51338,-0.08012 -0.64366,-0.224319 -0.16663,-0.184442 -0.24111,-0.582965 -0.24254,-1.29774 -7.7e-4,-0.391589 -0.0388,-0.687282 -0.10057,-0.782059 -0.0224,-0.03432 -0.0888,-0.07535 -0.14756,-0.09118 -0.19692,-0.05302 -0.34417,-0.254948 -0.69069,-0.947097 -0.26443,-0.528202 -0.43208,-0.774062 -0.61811,-0.906451 -0.0674,-0.04797 -0.2661,-0.160347 -0.44154,-0.249721 -0.5855,-0.29828 -0.69049,-0.43062 -0.73773,-0.929931 -0.0489,-0.517139 0.0473,-1.115679 0.24042,-1.495875 0.23283,-0.458294 0.92314,-1.356746 1.54813,-2.014914 0.30202,-0.318054 0.45675,-0.43735 0.59114,-0.45578 l 0.11636,-0.01596 -0.008,-0.114579 c -0.007,-0.09815 0.01,-0.138551 0.11655,-0.281796 0.34687,-0.464227 1.1628,-1.063946 1.78234,-1.310055 0.45641,-0.181308 0.92215,-0.269994 1.62319,-0.309092 0.60436,-0.03371 0.78561,-0.07695 0.94734,-0.226032 0.16021,-0.147674 0.29522,-0.167604 0.60488,-0.08929 0.73078,0.184797 1.72335,0.971604 2.56909,2.036513 0.65559,0.825484 0.85732,1.234552 1.22754,2.489164 0.36545,1.238486 0.97293,3.549707 0.97293,3.701645 0,0.09235 0.0804,0.191428 0.13996,0.172518 0.0766,-0.02429 0.29609,0.233699 0.56934,0.66907 0.26406,0.420725 0.57473,0.76434 0.71592,0.791837 0.21677,0.04222 0.61411,0.364491 1.48167,1.201745 0.85283,0.823043 2.50696,2.3775 2.86102,2.688617 0.16003,0.140619 0.82004,0.86427 1.03927,1.139479 1.2906,1.620149 1.86666,3.30017 2.43381,7.097888 0.49134,3.290071 0.70618,6.865978 0.55107,9.172222 -0.0386,0.574508 -0.0731,0.861145 -0.18347,1.524533 -0.14347,0.862655 -0.20755,1.406155 -0.25416,2.155554 -0.0465,0.747113 -0.1263,1.365117 -0.29556,2.28793 -0.062,0.338007 -0.13352,0.768604 -0.15894,0.95688 -0.0612,0.453125 -0.0614,1.395558 -3.9e-4,2.219102 0.0444,0.600626 0.1051,1.748436 0.14817,2.803496 0.0107,0.26134 0.0288,0.45995 0.0403,0.44135 0.0445,-0.072 0.0927,0.36352 0.24062,2.17382 0.0387,0.47343 0.0918,1.03699 0.11798,1.25237 l 0.0476,0.39159 -0.0748,0.0644 c -0.10273,0.0884 -0.24489,0.11454 -1.23325,0.2271 -0.47248,0.0538 -0.86573,0.10451 -0.8739,0.11268 -0.0193,0.0193 0.10396,0.7563 0.1683,1.00644 0.0748,0.29094 0.0651,0.28539 0.46309,0.26363 0.6498,-0.0355 1.5338,-0.10336 2.96423,-0.22741 2.50629,-0.21736 2.81766,-0.22693 3.08405,-0.0948 0.11597,0.0575 0.13939,0.0845 0.18028,0.20767 0.25156,0.75762 0.9117,7.05524 1.26464,12.06456 0.11886,1.68697 0.15733,3.06202 0.0891,3.18473 -0.0727,0.13082 -0.47757,0.2557 -0.83628,0.25798 -0.0621,4e-4 -0.16052,0.0139 -0.21872,0.0301 -0.0841,0.0233 -0.10584,0.0431 -0.10584,0.096 0,0.0765 0.19371,0.7412 0.59258,2.03331 0.74494,2.41318 3.40578,11.4111 3.58697,12.12972 0.24623,0.97659 0.68589,3.58588 0.70953,4.21095 l 0.007,1.13077 -0.20894,-0.002 c -0.27332,0.0922 -2.18163,-0.0315 -2.69999,0.0745 -0.70883,0.14495 -0.72375,0.0491 -0.8571,-0.43956 -0.0824,-0.30207 -0.13239,-0.11034 -0.28956,-0.17037 -0.25494,-0.0974 -0.19456,-0.10677 -1.38547,0.46781 -1.27804,0.61695 -2.3842,0.50234 -3.33605,0.58819 -0.73064,0.0659 -2.17063,0.0935 -3.48545,0.0667 z m -0.007,-0.79159 c -0.0737,-0.006 -0.19438,-0.006 -0.26811,0 -0.0737,0.006 -0.0134,0.0106 0.13406,0.0106 0.14746,0 0.20778,-0.005 0.13405,-0.0106 z m 5.69384,-3.73177 c 0.0518,-0.0213 0.0524,-0.0249 0.007,-0.0434 -0.0615,-0.0251 -0.14376,0.004 -0.12007,0.0421 0.0203,0.0329 0.0357,0.033 0.11302,0.001 z m 2.91205,-9.00922 c -0.009,-0.0225 -0.0157,-0.0158 -0.017,0.017 -0.001,0.0298 0.005,0.0464 0.0148,0.037 0.009,-0.009 0.0104,-0.0337 0.002,-0.0541 z m -6.43336,-1.11243 c -0.009,-0.009 -0.0337,-0.0104 -0.0541,-0.002 -0.0225,0.009 -0.0158,0.0157 0.017,0.0171 0.0298,0.001 0.0464,-0.005 0.0371,-0.0148 z m -10.34232,-4.8839 c -0.0191,-0.008 -0.0572,-0.008 -0.0847,-0.001 -0.0275,0.007 -0.0118,0.0135 0.0347,0.0141 0.0466,5.6e-4 0.069,-0.005 0.0499,-0.013 z m 12.55479,-7.18569 c -0.0279,-0.0277 -0.0311,-0.0244 -0.0158,0.0158 0.0106,0.0278 0.0264,0.0435 0.0351,0.0348 0.009,-0.009 2e-5,-0.0315 -0.0193,-0.0506 z m 2.6793,-3.8737 c -0.0248,-0.083 -0.0251,-0.0827 -0.0275,0.0275 -0.002,0.0723 0.007,0.10182 0.0251,0.084 0.017,-0.017 0.0179,-0.0595 0.002,-0.11148 z m -4.97214,-19.43738 c 0.002,-0.02716 -0.009,-0.04939 -0.0249,-0.04939 -0.0155,0 -0.0267,0.06033 -0.0249,0.134055 0.003,0.11966 0.006,0.124965 0.0249,0.04939 0.0119,-0.04657 0.0231,-0.106892 0.0249,-0.134055 z m -23.25941,-2.803996 c -0.009,-0.0094 -0.0337,-0.01038 -0.0541,-0.0022 -0.0225,0.009 -0.0158,0.0157 0.0171,0.01705 0.0298,0.0012 0.0464,-0.0054 0.037,-0.01483 z m 23.43744,-0.64617 c 0.006,-0.05433 0.001,-0.09878 -0.011,-0.09878 -0.0124,0 -0.0226,0.04445 -0.0226,0.09878 0,0.05433 0.005,0.09878 0.011,0.09878 0.006,0 0.0162,-0.04445 0.0226,-0.09878 z m -27.46074,-2.836333 c -0.006,-0.06209 -0.0158,-0.112889 -0.0219,-0.112889 -0.006,0 -0.0111,0.0508 -0.0111,0.112889 0,0.06209 0.01,0.112889 0.0219,0.112889 0.012,0 0.0171,-0.0508 0.0111,-0.112889 z m 6.18145,-1.248833 c -0.0162,-0.0194 -0.0718,-0.05948 -0.1234,-0.08906 -0.11069,-0.0634 -0.0922,-0.03691 0.0388,0.05578 0.10669,0.07544 0.12626,0.08314 0.0846,0.03328 z m 0.86927,-19.787082 c 0,-0.0057 -0.0523,-0.04494 -0.11613,-0.08721 -0.0639,-0.04227 -0.10693,-0.06198 -0.0957,-0.0438 0.0112,0.01818 0.0603,0.05738 0.10907,0.0871 0.0928,0.05658 0.10276,0.06084 0.10276,0.0439 z"
           id="path1553"
           inkscape:connector-curvature="0"
           sodipodi:nodetypes="ccccccccccccscccccccccccsccccccccccccccccccsccccscccccccccscccccccscccccccscccccccccccsccccccccsccccccccccccccccccccccccccccccccscscccccsscccccccccccccscccccccccssccccsccccccccscccccccccccccccccscccccscccccccscccccccccsssccsssccccccccccc" />
      </g>
      <rect
         inkscape:export-filename="Z:\DATA DUMP\Workspace\Clients Data\Employee Supply &amp; Outsource Ltd\Website\Serenity\ESCO\assets\img\logo.png"
         style="opacity:1;fill:none;fill-opacity:1;stroke:#aa0000;stroke-width:27.25795174;stroke-linecap:butt;stroke-linejoin:miter;stroke-miterlimit:2;stroke-dasharray:none;stroke-opacity:1;paint-order:fill markers stroke"
         id="rect1547"
         width="377.95276"
         height="377.95276"
         x="2333.6138"
         y="-7726.0786"
         ry="0"
         inkscape:export-xdpi="21.969999"
         inkscape:export-ydpi="21.969999" />
      <text
         inkscape:export-filename="Z:\DATA DUMP\Workspace\Clients Data\Employee Supply &amp; Outsource Ltd\Website\Serenity\ESCO\assets\img\logo.png"
         xml:space="preserve"
         style="font-style:normal;font-variant:normal;font-weight:normal;font-stretch:normal;font-size:202.57678223px;line-height:1.25;font-family:'Product Sans';-inkscape-font-specification:'Product Sans';letter-spacing:0px;word-spacing:0px;fill:#4d4d4d;fill-opacity:1;stroke:none;stroke-width:7.59662962"
         x="2764.0571"
         y="-7594.6338"
         id="text1561"
         inkscape:export-xdpi="21.969999"
         inkscape:export-ydpi="21.969999"><tspan
           sodipodi:role="line"
           id="tspan1559"
           x="2764.0571"
           y="-7594.6338"
           style="font-style:normal;font-variant:normal;font-weight:normal;font-stretch:normal;font-family:'Product Sans Medium';-inkscape-font-specification:'Product Sans Medium, ';letter-spacing:1.59529221px;fill:#4d4d4d;fill-opacity:1;stroke-width:7.59662962">Employee Supply</tspan></text>
      <rect
         inkscape:export-filename="Z:\DATA DUMP\Workspace\Clients Data\Employee Supply &amp; Outsource Ltd\Website\Serenity\ESCO\assets\img\logo.png"
         style="opacity:1;fill:#aa0000;fill-opacity:0.97267761;stroke:none;stroke-width:39.82330322;stroke-linecap:butt;stroke-linejoin:miter;stroke-miterlimit:2;stroke-dasharray:none;stroke-opacity:1;paint-order:normal"
         id="rect1563"
         width="1607.6589"
         height="202.60548"
         x="2713.5002"
         y="-7537.1021"
         inkscape:export-xdpi="21.969999"
         inkscape:export-ydpi="21.969999" />
      <text
         inkscape:export-filename="Z:\DATA DUMP\Workspace\Clients Data\Employee Supply &amp; Outsource Ltd\Website\Serenity\ESCO\assets\img\logo.png"
         xml:space="preserve"
         style="font-style:normal;font-variant:normal;font-weight:normal;font-stretch:normal;font-size:202.57678223px;line-height:1.25;font-family:'Product Sans Light';-inkscape-font-specification:'Product Sans Light, ';letter-spacing:0px;word-spacing:0px;fill:#ffffff;fill-opacity:1;stroke:none;stroke-width:7.59662962"
         x="2770.7422"
         y="-7363.2773"
         id="text1567"
         inkscape:export-xdpi="21.969999"
         inkscape:export-ydpi="21.969999"><tspan
           sodipodi:role="line"
           id="tspan1565"
           x="2770.7422"
           y="-7363.2773"
           style="font-style:normal;font-variant:normal;font-weight:normal;font-stretch:normal;font-family:'Product Sans Light';-inkscape-font-specification:'Product Sans Light, ';letter-spacing:5.9199996px;fill:#ffffff;stroke-width:7.59662962">&amp; Outsource Ltd.</tspan></text>
    </g>
  </g>
</svg>
