<?xml version="1.0" encoding="UTF-8" standalone="no"?>
<svg
   xmlns:dc="http://purl.org/dc/elements/1.1/"
   xmlns:cc="http://creativecommons.org/ns#"
   xmlns:rdf="http://www.w3.org/1999/02/22-rdf-syntax-ns#"
   xmlns:svg="http://www.w3.org/2000/svg"
   xmlns="http://www.w3.org/2000/svg"
   xmlns:sodipodi="http://sodipodi.sourceforge.net/DTD/sodipodi-0.dtd"
   xmlns:inkscape="http://www.inkscape.org/namespaces/inkscape"
   id="Layer_1"
   enable-background="new 0 0 512 512"
   height="512"
   viewBox="0 0 512 512"
   width="512"
   version="1.1"
   sodipodi:docname="hardware-recommendation.svg"
   inkscape:version="0.92.4 (5da689c313, 2019-01-14)">
  <metadata
     id="metadata19">
    <rdf:RDF>
      <cc:Work
         rdf:about="">
        <dc:format>image/svg+xml</dc:format>
        <dc:type
           rdf:resource="http://purl.org/dc/dcmitype/StillImage" />
      </cc:Work>
    </rdf:RDF>
  </metadata>
  <defs
     id="defs17" />
  <sodipodi:namedview
     pagecolor="#ffffff"
     bordercolor="#666666"
     borderopacity="1"
     objecttolerance="10"
     gridtolerance="10"
     guidetolerance="10"
     inkscape:pageopacity="0"
     inkscape:pageshadow="2"
     inkscape:window-width="1920"
     inkscape:window-height="1001"
     id="namedview15"
     showgrid="false"
     inkscape:zoom="0.23046875"
     inkscape:cx="77.425"
     inkscape:cy="1123.2445"
     inkscape:window-x="-9"
     inkscape:window-y="-9"
     inkscape:window-maximized="1"
     inkscape:current-layer="Layer_1" />
  <g
     id="XMLID_1542_"
     style="fill:#ed8d1b;fill-opacity:1">
    <g
       id="XMLID_671_"
       style="fill:#ed8d1b;fill-opacity:1">
      <path
         id="XMLID_672_"
         d="m366 136h-64.873c-5.522 0-10 4.477-10 10s4.478 10 10 10h54.873v200h-200v-200h55.127c5.522 0 10-4.477 10-10s-4.478-10-10-10h-65.127c-5.522 0-10 4.477-10 10v220c0 5.522 4.478 10 10 10h220c5.522 0 10-4.478 10-10v-220c0-5.523-4.478-10-10-10z"
         style="fill:#ed8d1b;fill-opacity:1" />
      <path
         id="XMLID_1085_"
         d="m180 190v44c0 5.523 4.478 10 10 10h44c5.522 0 10-4.477 10-10v-44c0-5.523-4.478-10-10-10h-44c-5.522 0-10 4.477-10 10zm20 10h24v24h-24z"
         style="fill:#ed8d1b;fill-opacity:1" />
      <path
         id="XMLID_1086_"
         d="m278 200h44c5.522 0 10-4.477 10-10s-4.478-10-10-10h-44c-5.522 0-10 4.477-10 10s4.478 10 10 10z"
         style="fill:#ed8d1b;fill-opacity:1" />
      <path
         id="XMLID_1087_"
         d="m278 244h44c5.522 0 10-4.477 10-10s-4.478-10-10-10h-44c-5.522 0-10 4.477-10 10s4.478 10 10 10z"
         style="fill:#ed8d1b;fill-opacity:1" />
      <path
         id="XMLID_1088_"
         d="m278 332h44c5.522 0 10-4.478 10-10v-44c0-5.522-4.478-10-10-10s-10 4.478-10 10v34h-34c-5.522 0-10 4.478-10 10s4.478 10 10 10z"
         style="fill:#ed8d1b;fill-opacity:1" />
      <path
         id="XMLID_1089_"
         d="m278 288c2.63 0 5.21-1.07 7.069-2.931 1.861-1.859 2.931-4.439 2.931-7.069s-1.07-5.21-2.931-7.07c-1.859-1.86-4.439-2.93-7.069-2.93s-5.21 1.069-7.07 2.93-2.93 4.44-2.93 7.07 1.069 5.21 2.93 7.069c1.86 1.861 4.44 2.931 7.07 2.931z"
         style="fill:#ed8d1b;fill-opacity:1" />
      <path
         id="XMLID_1090_"
         d="m234 312h-44c-5.522 0-10 4.478-10 10s4.478 10 10 10h44c5.522 0 10-4.478 10-10s-4.478-10-10-10z"
         style="fill:#ed8d1b;fill-opacity:1" />
      <path
         id="XMLID_1092_"
         d="m234 268h-44c-5.522 0-10 4.478-10 10s4.478 10 10 10h44c5.522 0 10-4.478 10-10s-4.478-10-10-10z"
         style="fill:#ed8d1b;fill-opacity:1" />
      <path
         id="XMLID_1133_"
         d="m502 266c5.522 0 10-4.478 10-10 0-5.523-4.478-10-10-10h-78v-36h38c5.522 0 10-4.477 10-10s-4.478-10-10-10h-38v-36h78c5.522 0 10-4.477 10-10s-4.478-10-10-10h-78.596c-3.488-23.384-22.02-41.916-45.404-45.404v-78.596c0-5.523-4.478-10-10-10s-10 4.477-10 10v78h-36v-38c0-5.523-4.478-10-10-10s-10 4.477-10 10v38h-36v-78c0-5.523-4.478-10-10-10s-10 4.477-10 10v78h-36v-38c0-5.523-4.478-10-10-10s-10 4.477-10 10v38h-36v-78c0-5.523-4.478-10-10-10s-10 4.477-10 10v78.596c-23.384 3.488-41.916 22.02-45.404 45.404h-78.596c-5.522 0-10 4.477-10 10s4.478 10 10 10h78v36h-38c-5.522 0-10 4.477-10 10s4.478 10 10 10h38v36h-78c-5.522 0-10 4.477-10 10 0 5.522 4.478 10 10 10h78v36h-38c-5.522 0-10 4.478-10 10s4.478 10 10 10h38v36h-78c-5.522 0-10 4.478-10 10s4.478 10 10 10h78.596c3.488 23.384 22.02 41.916 45.404 45.404v78.596c0 5.522 4.478 10 10 10s10-4.478 10-10v-78h36v38c0 5.522 4.478 10 10 10s10-4.478 10-10v-38h36v78c0 5.522 4.478 10 10 10s10-4.478 10-10v-78h36v38c0 5.522 4.478 10 10 10s10-4.478 10-10v-38h36v78c0 5.522 4.478 10 10 10s10-4.478 10-10v-78.596c23.383-3.488 41.916-22.02 45.404-45.404h78.596c5.522 0 10-4.478 10-10s-4.478-10-10-10h-78v-36h38c5.522 0 10-4.478 10-10s-4.478-10-10-10h-38v-36zm-98 104c0 18.748-15.252 34-34 34h-228c-18.748 0-34-15.252-34-34v-228c0-18.748 15.252-34 34-34h228c18.748 0 34 15.252 34 34z"
         style="fill:#ed8d1b;fill-opacity:1" />
      <path
         id="XMLID_1135_"
         d="m256.13 156c2.63 0 5.21-1.07 7.07-2.93 1.859-1.86 2.93-4.44 2.93-7.07s-1.07-5.21-2.93-7.07-4.44-2.93-7.07-2.93c-2.64 0-5.21 1.07-7.07 2.93-1.87 1.86-2.93 4.44-2.93 7.07s1.06 5.21 2.93 7.07c1.86 1.86 4.43 2.93 7.07 2.93z"
         style="fill:#ed8d1b;fill-opacity:1" />
    </g>
  </g>
</svg>
