<?xml version="1.0" encoding="UTF-8" standalone="no"?>
<svg
   xmlns:dc="http://purl.org/dc/elements/1.1/"
   xmlns:cc="http://creativecommons.org/ns#"
   xmlns:rdf="http://www.w3.org/1999/02/22-rdf-syntax-ns#"
   xmlns:svg="http://www.w3.org/2000/svg"
   xmlns="http://www.w3.org/2000/svg"
   xmlns:sodipodi="http://sodipodi.sourceforge.net/DTD/sodipodi-0.dtd"
   xmlns:inkscape="http://www.inkscape.org/namespaces/inkscape"
   id="Capa_1"
   enable-background="new 0 0 512.739 512.739"
   height="512"
   viewBox="0 0 512.739 512.739"
   width="512"
   version="1.1"
   sodipodi:docname="printing-services.svg"
   inkscape:version="0.92.4 (5da689c313, 2019-01-14)">
  <metadata
     id="metadata17">
    <rdf:RDF>
      <cc:Work
         rdf:about="">
        <dc:format>image/svg+xml</dc:format>
        <dc:type
           rdf:resource="http://purl.org/dc/dcmitype/StillImage" />
      </cc:Work>
    </rdf:RDF>
  </metadata>
  <defs
     id="defs15" />
  <sodipodi:namedview
     pagecolor="#ffffff"
     bordercolor="#666666"
     borderopacity="1"
     objecttolerance="10"
     gridtolerance="10"
     guidetolerance="10"
     inkscape:pageopacity="0"
     inkscape:pageshadow="2"
     inkscape:window-width="1920"
     inkscape:window-height="1001"
     id="namedview13"
     showgrid="false"
     inkscape:zoom="0.32593203"
     inkscape:cx="14.891373"
     inkscape:cy="329.40144"
     inkscape:window-x="-9"
     inkscape:window-y="-9"
     inkscape:window-maximized="1"
     inkscape:current-layer="Capa_1" />
  <g
     id="g10"
     style="fill:#ac2429;fill-opacity:1">
    <path
       d="m487.224 293.822v-21.195c0-12.227-6.448-22.971-16.118-29.026v-21.905c0-16.568-13.479-30.048-30.048-30.048h-3.19c-2.204-14.412-14.684-25.486-29.703-25.486h-6.316v-150.647c0-8.054-6.553-14.606-14.607-14.606h-262.476c-8.055 0-14.607 6.553-14.607 14.606v68.477c0 4.143 3.357 7.5 7.5 7.5s7.5-3.357 7.5-7.5v-68.083h261.69v222.488h-261.69v-122.443c0-4.143-3.357-7.5-7.5-7.5s-7.5 3.357-7.5 7.5v50.208h-6.317c-15.018 0-27.498 11.075-29.702 25.486h-3.19c-16.568 0-30.048 13.479-30.048 30.048v21.905c-9.669 6.056-16.117 16.8-16.117 29.026v21.326c-14.111 2.795-24.783 15.263-24.783 30.182v139.13c0 .007-.001.013-.001.02s.001.013.001.02v14.576c0 18.72 15.229 33.95 33.95 33.95h36.717c5.891 0 10.997-3.787 12.708-9.423l1.083-3.567h343.822l1.083 3.567c1.711 5.636 6.817 9.423 12.708 9.423h36.717c18.721 0 33.95-15.23 33.95-33.95v-153.746c-.001-15.175-11.045-27.811-25.516-30.313zm-31.119-72.126v16.849c-1.026-.093-2.063-.148-3.112-.148h-14.779v-31.749h2.844c8.297 0 15.047 6.75 15.047 15.048zm-54.256-40.534h6.316c8.298 0 15.049 6.75 15.049 15.048v42.188h-21.365zm-313.056 15.047c0-8.298 6.75-15.048 15.048-15.048h6.317v57.235h-21.365zm-32.892 25.487c0-8.298 6.75-15.048 15.048-15.048h2.844v31.749h-14.779c-1.05 0-2.086.055-3.112.148v-16.849zm3.113 31.701h393.979c10.604 0 19.23 8.627 19.23 19.23v20.736h-19.618c-3.781 0-7.509 1.006-10.778 2.909l-74.648 43.469c-.709.413-1.516.631-2.334.631h-216.949c-.818 0-1.625-.218-2.332-.63l-74.651-43.47c-3.269-1.903-6.996-2.909-10.777-2.909h-20.352v-20.736c0-10.603 8.626-19.23 19.23-19.23zm10.379 243.434h-35.442c-10.449 0-18.95-8.501-18.95-18.95v-7.096h62.385c-.325.9-.636 1.809-.917 2.733zm19.619-12.991 1.811-5.965c1.102-3.631 2.681-7.002 4.653-10.057.18-.237.346-.483.498-.741 7.181-10.586 19.192-17.172 32.57-17.172h24.078c4.143 0 7.5-3.357 7.5-7.5s-3.357-7.5-7.5-7.5h-24.078c-17.248 0-32.854 7.927-42.917 20.879h-70.626v-131.649c0-8.696 7.075-15.771 15.771-15.771h29.362c1.133 0 2.25.302 3.229.872l74.652 43.471c2.998 1.744 6.414 2.666 9.879 2.666h216.949c3.465 0 6.881-.922 9.881-2.667l74.649-43.47c.98-.57 2.098-.872 3.23-.872h29.362c8.696 0 15.771 7.075 15.771 15.771v131.649h-70.626c-10.063-12.952-25.669-20.879-42.917-20.879h-199.609c-4.143 0-7.5 3.357-7.5 7.5s3.357 7.5 7.5 7.5h199.612c17.483 0 32.642 11.24 37.721 27.97l1.811 5.965zm389.777 12.991h-35.441l-7.077-23.313c-.281-.925-.592-1.833-.917-2.733h62.385v7.096c0 10.449-8.501 18.95-18.95 18.95z"
       id="path2"
       style="fill:#ac2429;fill-opacity:1" />
    <path
       d="m160.437 320.78h141.272c4.143 0 7.5-3.357 7.5-7.5s-3.357-7.5-7.5-7.5h-141.272c-.174 0-.314-.141-.314-.314v-19.219c0-.174.141-.314.314-.314h190.867c.174 0 .314.141.314.314v19.219c0 .174-.141.314-.314.314h-17.632c-4.143 0-7.5 3.357-7.5 7.5s3.357 7.5 7.5 7.5h17.632c8.444 0 15.314-6.87 15.314-15.314v-19.219c0-8.444-6.87-15.314-15.314-15.314h-190.867c-8.444 0-15.314 6.87-15.314 15.314v19.219c-.001 8.444 6.869 15.314 15.314 15.314z"
       id="path4"
       style="fill:#ac2429;fill-opacity:1" />
    <path
       d="m50.36 377.411h-7.507c-4.143 0-7.5 3.357-7.5 7.5s3.357 7.5 7.5 7.5h7.507c4.143 0 7.5-3.357 7.5-7.5s-3.357-7.5-7.5-7.5z"
       id="path6"
       style="fill:#ac2429;fill-opacity:1" />
    <path
       d="m93.265 377.411h-7.507c-4.143 0-7.5 3.357-7.5 7.5s3.357 7.5 7.5 7.5h7.507c4.143 0 7.5-3.357 7.5-7.5s-3.358-7.5-7.5-7.5z"
       id="path8"
       style="fill:#ac2429;fill-opacity:1" />
  </g>
</svg>
