<?xml version="1.0" encoding="UTF-8" standalone="no"?>
<svg
   xmlns:dc="http://purl.org/dc/elements/1.1/"
   xmlns:cc="http://creativecommons.org/ns#"
   xmlns:rdf="http://www.w3.org/1999/02/22-rdf-syntax-ns#"
   xmlns:svg="http://www.w3.org/2000/svg"
   xmlns="http://www.w3.org/2000/svg"
   xmlns:sodipodi="http://sodipodi.sourceforge.net/DTD/sodipodi-0.dtd"
   xmlns:inkscape="http://www.inkscape.org/namespaces/inkscape"
   id="Layer_1"
   enable-background="new 0 0 512 512"
   height="512"
   viewBox="0 0 512 512"
   width="512"
   version="1.1"
   sodipodi:docname="web-design-services.svg"
   inkscape:version="0.92.4 (5da689c313, 2019-01-14)">
  <metadata
     id="metadata33">
    <rdf:RDF>
      <cc:Work
         rdf:about="">
        <dc:format>image/svg+xml</dc:format>
        <dc:type
           rdf:resource="http://purl.org/dc/dcmitype/StillImage" />
      </cc:Work>
    </rdf:RDF>
  </metadata>
  <defs
     id="defs31" />
  <sodipodi:namedview
     pagecolor="#ffffff"
     bordercolor="#666666"
     borderopacity="1"
     objecttolerance="10"
     gridtolerance="10"
     guidetolerance="10"
     inkscape:pageopacity="0"
     inkscape:pageshadow="2"
     inkscape:window-width="1920"
     inkscape:window-height="1001"
     id="namedview29"
     showgrid="false"
     inkscape:zoom="0.4609375"
     inkscape:cx="256"
     inkscape:cy="256"
     inkscape:window-x="-9"
     inkscape:window-y="-9"
     inkscape:window-maximized="1"
     inkscape:current-layer="Layer_1" />
  <g
     id="g26"
     style="fill:#0e76bc;fill-opacity:1">
    <g
       id="g24"
       style="fill:#0e76bc;fill-opacity:1">
      <path
         d="m474.5 71.5h-26.261c-4.143 0-7.5 3.357-7.5 7.5s3.357 7.5 7.5 7.5h26.261c12.406 0 22.5 10.094 22.5 22.5v34.5h-482v-34.5c0-12.406 10.093-22.5 22.5-22.5h377.809c4.143 0 7.5-3.357 7.5-7.5s-3.357-7.5-7.5-7.5h-377.809c-20.678 0-37.5 16.822-37.5 37.5v82.681c0 4.143 3.358 7.5 7.5 7.5s7.5-3.357 7.5-7.5v-33.181h482v193.366c0 4.143 3.357 7.5 7.5 7.5s7.5-3.357 7.5-7.5v-242.866c0-20.678-16.822-37.5-37.5-37.5z"
         id="path2"
         style="fill:#0e76bc;fill-opacity:1" />
      <path
         d="m504.5 375.994c-4.143 0-7.5 3.357-7.5 7.5v19.506c0 12.406-10.094 22.5-22.5 22.5h-437c-12.407 0-22.5-10.094-22.5-22.5v-179.133c0-4.143-3.358-7.5-7.5-7.5s-7.5 3.357-7.5 7.5v179.133c0 20.678 16.822 37.5 37.5 37.5h437c20.678 0 37.5-16.822 37.5-37.5v-19.506c0-4.142-3.357-7.5-7.5-7.5z"
         id="path4"
         style="fill:#0e76bc;fill-opacity:1" />
      <path
         d="m108.482 234.457c-2.929-2.928-7.678-2.928-10.606 0l-45.07 45.07c-1.407 1.407-2.197 3.314-2.197 5.304s.79 3.896 2.197 5.304l44.474 44.474c1.464 1.464 3.384 2.196 5.303 2.196s3.839-.732 5.303-2.196c2.929-2.93 2.929-7.678 0-10.607l-39.171-39.17 39.767-39.767c2.93-2.93 2.93-7.678 0-10.608z"
         id="path6"
         style="fill:#0e76bc;fill-opacity:1" />
      <path
         d="m209.344 334.608c1.464 1.464 3.384 2.196 5.303 2.196s3.839-.732 5.303-2.196l44.475-44.474c1.406-1.407 2.196-3.314 2.196-5.304s-.79-3.896-2.196-5.304l-45.071-45.07c-2.929-2.928-7.678-2.928-10.606 0-2.929 2.93-2.929 7.678 0 10.607l39.768 39.767-39.171 39.17c-2.93 2.931-2.93 7.679-.001 10.608z"
         id="path8"
         style="fill:#0e76bc;fill-opacity:1" />
      <path
         d="m131.99 362.234c3.025 0 5.876-1.844 7.013-4.841l53.294-140.398c1.47-3.873-.478-8.204-4.35-9.674-3.872-1.471-8.204.478-9.673 4.35l-53.294 140.4c-1.47 3.872.478 8.203 4.35 9.673.876.333 1.775.49 2.66.49z"
         id="path10"
         style="fill:#0e76bc;fill-opacity:1" />
      <path
         d="m33.006 115.371c0 12.406 10.093 22.5 22.5 22.5s22.5-10.094 22.5-22.5-10.093-22.5-22.5-22.5-22.5 10.094-22.5 22.5zm30 0c0 4.136-3.364 7.5-7.5 7.5s-7.5-3.364-7.5-7.5 3.364-7.5 7.5-7.5 7.5 3.364 7.5 7.5z"
         id="path12"
         style="fill:#0e76bc;fill-opacity:1" />
      <path
         d="m91.166 115.371c0 12.406 10.093 22.5 22.5 22.5s22.5-10.094 22.5-22.5-10.093-22.5-22.5-22.5-22.5 10.094-22.5 22.5zm30 0c0 4.136-3.364 7.5-7.5 7.5s-7.5-3.364-7.5-7.5 3.364-7.5 7.5-7.5 7.5 3.364 7.5 7.5z"
         id="path14"
         style="fill:#0e76bc;fill-opacity:1" />
      <path
         d="m149.325 115.371c0 12.406 10.093 22.5 22.5 22.5s22.5-10.094 22.5-22.5-10.093-22.5-22.5-22.5-22.5 10.094-22.5 22.5zm30 0c0 4.136-3.364 7.5-7.5 7.5s-7.5-3.364-7.5-7.5 3.364-7.5 7.5-7.5 7.5 3.364 7.5 7.5z"
         id="path16"
         style="fill:#0e76bc;fill-opacity:1" />
      <path
         d="m335.5 242.368h47c12.406 0 22.5-10.094 22.5-22.5s-10.094-22.5-22.5-22.5h-47c-12.406 0-22.5 10.094-22.5 22.5s10.094 22.5 22.5 22.5zm0-30h47c4.136 0 7.5 3.364 7.5 7.5s-3.364 7.5-7.5 7.5h-47c-4.136 0-7.5-3.364-7.5-7.5s3.364-7.5 7.5-7.5z"
         id="path18"
         style="fill:#0e76bc;fill-opacity:1" />
      <path
         d="m335.5 302.368h124c12.406 0 22.5-10.094 22.5-22.5s-10.094-22.5-22.5-22.5h-124c-12.406 0-22.5 10.094-22.5 22.5s10.094 22.5 22.5 22.5zm0-30h124c4.136 0 7.5 3.364 7.5 7.5s-3.364 7.5-7.5 7.5h-124c-4.136 0-7.5-3.364-7.5-7.5s3.364-7.5 7.5-7.5z"
         id="path20"
         style="fill:#0e76bc;fill-opacity:1" />
      <path
         d="m335.5 362.368h87.165c12.406 0 22.5-10.094 22.5-22.5s-10.094-22.5-22.5-22.5h-87.165c-12.406 0-22.5 10.094-22.5 22.5s10.094 22.5 22.5 22.5zm0-30h87.165c4.136 0 7.5 3.364 7.5 7.5s-3.364 7.5-7.5 7.5h-87.165c-4.136 0-7.5-3.364-7.5-7.5s3.364-7.5 7.5-7.5z"
         id="path22"
         style="fill:#0e76bc;fill-opacity:1" />
    </g>
  </g>
</svg>
